# xmcd CD database file
#
# Track frame offsets:
#	150
#	14493
#	30028
#	42670
#	56371
#	70798
#	83695
#	94354
#	108508
#	120640
#	134051
#	150575
#	163455
#	172257
#	186148
#	195651
#	210652
#	222637
#	234851
#	244724
#	261302
#
# Disc length: 3707 seconds
#
# Revision: 0
# Processed by: cddbd v1.5.1PL2 Copyright (c) Steve Scherf et al.
# Submitted via: CDex 1.51
#
DISCID=320e7915
DTITLE=Doris Day - STAR BOX
DYEAR=1900
DGENRE=Jazz
TTITLE0=Sentimental Journey
TTITLE1=It's Magic
TTITLE2=Again
TTITLE3=The Very Thought Of You
TTITLE4=Tea For Two
TTITLE5=Lullaby Of Broadway
TTITLE6=(Why Did I Tell You I Was Going To) Shanghai
TTITLE7=Domino
TTITLE8=A Guy Is A Guy
TTITLE9=When I Fall In Love
TTITLE10=Secret Love
TTITLE11=If I Give My Heart To You
TTITLE12=I'll Never Stop Loving You
TTITLE13=Autumn Leaves
TTITLE14=Whatever Will Be,Will Be
TTITLE15=There Once Was A Man
TTITLE16=Teacher's Pet
TTITLE17=Everybody Loves A Lover
TTITLE18=Pillow Talk
TTITLE19=How Insensitive
TTITLE20=Sentimental Journey
EXTD=
EXTT0=
EXTT1=
EXTT2=
EXTT3=
EXTT4=
EXTT5=
EXTT6=
EXTT7=
EXTT8=
EXTT9=
EXTT10=
EXTT11=
EXTT12=
EXTT13=
EXTT14=
EXTT15=
EXTT16=
EXTT17=
EXTT18=
EXTT19=
EXTT20=
PLAYORDER=
